<svg width="49" height="48" viewBox="0 0 49 48" fill="none" xmlns="http://www.w3.org/2000/svg">
<rect x="0.666992" width="48" height="48" rx="24" fill="#F2F4F7"/>
<path d="M34.667 23.08V24C34.6658 26.1564 33.9675 28.2547 32.6763 29.9818C31.3852 31.709 29.5703 32.9725 27.5023 33.5839C25.4344 34.1953 23.2243 34.1219 21.2015 33.3746C19.1787 32.6273 17.4516 31.2461 16.278 29.4371C15.1043 27.628 14.5468 25.4881 14.6887 23.3363C14.8306 21.1846 15.6642 19.1363 17.0653 17.4971C18.4663 15.8578 20.3598 14.7154 22.4632 14.2401C24.5666 13.7649 26.7673 13.9823 28.737 14.86M34.667 16L24.667 26.01L21.667 23.01" stroke="#475467" stroke-width="2" stroke-linecap="round" stroke-linejoin="round"/>
</svg>
