<svg width="49" height="48" viewBox="0 0 49 48" fill="none" xmlns="http://www.w3.org/2000/svg">
<rect x="0.666992" width="48" height="48" rx="24" fill="#F2F4F7"/>
<path d="M33.8774 27.89C33.2412 29.3945 32.2462 30.7202 30.9793 31.7513C29.7124 32.7824 28.2122 33.4874 26.6098 33.8048C25.0075 34.1221 23.3518 34.0421 21.7875 33.5718C20.2233 33.1014 18.798 32.2551 17.6364 31.1067C16.4748 29.9582 15.6122 28.5428 15.124 26.9839C14.6359 25.4251 14.537 23.7705 14.836 22.1646C15.135 20.5588 15.8229 19.0506 16.8394 17.772C17.856 16.4934 19.1703 15.4833 20.6674 14.83M34.6674 24C34.6674 22.6868 34.4087 21.3864 33.9062 20.1732C33.4036 18.9599 32.6671 17.8575 31.7385 16.9289C30.8099 16.0003 29.7075 15.2638 28.4942 14.7612C27.281 14.2587 25.9806 14 24.6674 14V24H34.6674Z" stroke="#475467" stroke-width="2" stroke-linecap="round" stroke-linejoin="round"/>
</svg>
